inDegrees=yes
name=IK-live
DataType=double
version=3
OpenSimVersion=4.1
endheader
time	pelvis_tilt	pelvis_list	pelvis_rotation	pelvis_tx	pelvis_ty	pelvis_tz	hip_flexion_r	hip_adduction_r	hip_rotation_r	knee_angle_r	ankle_angle_r	subtalar_angle_r	mtp_angle_r	hip_flexion_l	hip_adduction_l	hip_rotation_l	knee_angle_l	ankle_angle_l	subtalar_angle_l	mtp_angle_l	lumbar_extension	lumbar_bending	lumbar_rotation	neck_flex	neck_latbend	neck_rot	arm_flex_r	arm_add_r	arm_rot_r	elbow_flex_r	pro_sup_r	wrist_flex_r	wrist_dev_r	arm_flex_l	arm_add_l	arm_rot_l	elbow_flex_l	pro_sup_l	wrist_flex_l	wrist_dev_l
16.0510286	-1.020643910879285	23.65512244518954	-204.0640955379413	0.2341366603171506	0.04326292228651554	-1.326684523481465	-22.57117169827992	-1.591976316804377	-3.241458145969817	5.899560354604904	2.451982624139334	1.987972377786656	0	-24.74788768789517	-3.395140484746916	-11.58000132048591	9.793848132074926	-0.4439473045988533	4.250290820099795	0	-21.37711699760957	1.659277491615732	3.206407148933037	0	0	0	0.7779346411013315	-15.176512464233	33.31434007807191	6.968100996135846	24.86653309299733	0	0.008924391520077762	5.86911572152519	-13.22969240055041	43.90327095949383	6.781662998970594	33.47635928325783	0	0.008924391520077762
16.2120897	34.44913355543679	35.65156394506974	-236.7845591191257	0.2341366603171506	0.04326292228651554	-1.326684523481465	-22.57117169827992	-1.591976316804377	-3.241458145969817	5.899560354604904	2.451982624139334	1.987972377786656	0	-24.74788768789517	-3.395140484746916	-11.58000132048591	9.793848132074926	-0.4439473045988533	4.250290820099795	0	-21.37711699760957	1.659277491615732	3.206407148933037	0	0	0	0.7875200499043329	-15.17647050887082	33.30188856620298	7.136273678227796	24.89857631390332	0	0.02354163465098056	5.877841170970516	-13.23011330352354	43.88471675131147	6.954375293081843	33.49211532524183	0	0.02354163465098056
16.3639228	60.39321239121699	42.73465832489988	-255.0211819529634	0.2341366603171506	0.04326292228651554	-1.326684523481465	-22.57117169827992	-1.591976316804377	-3.241458145969817	5.899560354604904	2.451982624139334	1.987972377786656	0	-24.74788768789517	-3.395140484746916	-11.58000132048591	9.793848132074926	-0.4439473045988533	4.250290820099795	0	-21.37711699760957	1.659277491615732	3.206407148933037	0	0	0	0.7846604853147769	-15.17648298765999	33.30557412892824	7.092110300510178	24.88930270993725	0	0.01935229869356311	5.875237190784075	-13.22998811478003	43.89019473297037	6.909234206738653	33.48752577497349	0	0.01935229869356311
16.5247486	77.33959637085036	37.81603762761002	-265.2666675907364	0.2341366603171506	0.04326292228651554	-1.326684523481465	-22.57117169827992	-1.591976316804377	-3.241458145969817	5.899560354604904	2.451982624139334	1.987972377786656	0	-24.74788768789517	-3.395140484746916	-11.58000132048591	9.793848132074926	-0.4439473045988533	4.250290820099795	0	-21.37711699760957	1.659277491615732	3.206407148933037	0	0	0	0.7824981537771603	-15.17649244646054	33.30838010882299	7.053447625535336	24.88207234541966	0	0.0160502544600767	5.873268682303025	-13.22989322261448	43.8943757767878	6.869488918179414	33.48397323215666	0	0.0160502544600767
16.6766533	-91.37205123155222	151.2643115395446	-93.6698564028917	0.2341366603171506	0.04326292228651554	-1.326684523481465	-22.57117169827992	-1.591976316804377	-3.241458145969817	5.899560354604904	2.451982624139334	1.987972377786656	0	-24.74788768789517	-3.395140484746916	-11.58000132048591	9.793848132074926	-0.4439473045988533	4.250290820099795	0	-21.37711699760957	1.659277491615732	3.206407148933037	0	0	0	0.783173581181568	-15.17648948438868	33.30750158061899	7.061116560315404	24.88428591253236	0	0.01705206858439096	5.873883467329282	-13.22992293859015	43.89306895667196	6.877171075953647	33.48507529288257	0	0.01705206858439096
16.8386117	-87.38263256346042	156.0206669170447	-93.69348935025224	0.2341366603171506	0.04326292228651554	-1.326684523481465	-22.57117169827992	-1.591976316804377	-3.241458145969817	5.899560354604904	2.451982624139334	1.987972377786656	0	-24.74788768789517	-3.395140484746916	-11.58000132048591	9.793848132074926	-0.4439473045988533	4.250290820099795	0	-21.37711699760957	1.659277491615732	3.206407148933037	0	0	0	0.7819611135621706	-15.17649479105862	33.30907301163668	7.045238386701815	24.88032396792557	0	0.0152591699216262	5.872779659147205	-13.2298697013085	43.8954059591231	6.86110961663102	33.48310833077571	0	0.0152591699216262
